<?xml version="1.0" encoding="UTF-8" standalone="no"?>
<!-- Generator: Adobe Illustrator 19.1.0, SVG Export Plug-In . SVG Version: 6.00 Build 0)  -->

<svg
   xmlns:dc="http://purl.org/dc/elements/1.1/"
   xmlns:cc="http://creativecommons.org/ns#"
   xmlns:rdf="http://www.w3.org/1999/02/22-rdf-syntax-ns#"
   xmlns:svg="http://www.w3.org/2000/svg"
   xmlns="http://www.w3.org/2000/svg"
   xmlns:sodipodi="http://sodipodi.sourceforge.net/DTD/sodipodi-0.dtd"
   xmlns:inkscape="http://www.inkscape.org/namespaces/inkscape"
   version="1.1"
   id="Layer_1"
   x="0px"
   y="0px"
   width="64px"
   height="16px"
   viewBox="0 0 64 16"
   enable-background="new 0 0 64 16"
   xml:space="preserve"
   inkscape:version="0.91 r13725"
   sodipodi:docname="cd-icons.svg"><metadata
   id="metadata25"><rdf:RDF><cc:Work
       rdf:about=""><dc:format>image/svg+xml</dc:format><dc:type
         rdf:resource="http://purl.org/dc/dcmitype/StillImage" /></cc:Work></rdf:RDF></metadata><defs
   id="defs23" /><sodipodi:namedview
   pagecolor="#ffffff"
   bordercolor="#666666"
   borderopacity="1"
   objecttolerance="10"
   gridtolerance="10"
   guidetolerance="10"
   inkscape:pageopacity="0"
   inkscape:pageshadow="2"
   inkscape:window-width="1280"
   inkscape:window-height="962"
   id="namedview21"
   showgrid="false"
   inkscape:zoom="6.328125"
   inkscape:cx="7.9012346"
   inkscape:cy="8"
   inkscape:window-x="-8"
   inkscape:window-y="-8"
   inkscape:window-maximized="1"
   inkscape:current-layer="Layer_1" />
<g
   transform="translate(0, 0)"
   id="g3">
	<polygon
   fill="#FFFFFF"
   points="8,12.6000004 0.3,4.9000001 1.7,3.4000001 8,9.6999998 14.3000002,3.4000001 15.6999998,4.9000001     "
   id="polygon5" />
</g>
<g
   transform="translate(16, 0)"
   id="g7">
	<path
   fill="#6C7079"
   d="M15,3H8.3999996L5.6999998,0.3C5.5,0.1,5.3000002,0,5,0H1C0.4,0,0,0.4,0,1v14c0,0.6000004,0.4,1,1,1h14   c0.6000004,0,1-0.3999996,1-1V4C16,3.4000001,15.6000004,3,15,3z"
   id="path9"
   style="fill:#62ce94;fill-opacity:1" />
</g>
<g
   transform="translate(32, 0)"
   id="g11"
   style="fill:#62ce94;fill-opacity:1">
	<path
   fill="#6C7079"
   d="M15.8000002,7.4000001C15.6000004,7.1999998,15.3000002,7,15,7H4   C3.5999999,7,3.2,7.1999998,3.0999999,7.5999999l-3,7.0000005C-0.1,15.1999998,0.1,16,1,16h11   c0.3999996,0,0.8000002-0.1999998,0.8999996-0.6000004l3-7C16.1000004,8.1000004,16,7.6999998,15.8000002,7.4000001z"
   id="path13"
   style="fill:#62ce94;fill-opacity:1" />
	<path
   fill="#6C7079"
   d="M1.2,6.8000002C1.7,5.6999998,2.8,5,4,5h9V3c0-0.5999999-0.3999996-1-1-1H6.4000001L4.6999998,0.3   C4.5,0.1,4.3000002,0,4,0H1C0.4,0,0,0.4,0,1v8.6999998L1.2,6.8000002z"
   id="path15"
   style="fill:#62ce94;fill-opacity:1" />
</g>
<g
   transform="translate(48, 0)"
   id="g17"
   style="fill:#62ce94;fill-opacity:1">
	<path
   fill="#6C7079"
   d="M15,0H1C0.4,0,0,0.4,0,1v14c0,0.6000004,0.4,1,1,1h14c0.6000004,0,1-0.3999996,1-1V1   C16,0.4,15.6000004,0,15,0z M6,4c0.5999999,0,1,0.4000001,1,1S6.5999999,6,6,6S5,5.5999999,5,5S5.4000001,4,6,4z M3,12l2-4l2,2l3-4   l3,6H3z"
   id="path19"
   style="fill:#62ce94;fill-opacity:1" />
</g>
<path
   style="fill:#62ce94;fill-opacity:0"
   d="m 16.469729,15.718447 -0.35121,-0.245998 0,-7.4778628 c 0,-6.7564059 0.02516,-7.49878732 0.260762,-7.69474309 0.187254,-0.15574234 0.902848,-0.23134987 2.538496,-0.26821 l 2.277734,-0.05132986 1.531191,1.50436595 1.531191,1.5043658 3.607493,0.048199 c 3.358001,0.044865 3.622988,0.069413 3.831548,0.354945 0.18389,0.2517586 0.224054,1.3620134 0.224054,6.1935085 l 0,5.8867619 -0.351211,0.245998 c -0.305396,0.213907 -1.290294,0.245997 -7.550024,0.245997 -6.25973,0 -7.244628,-0.03209 -7.550024,-0.245997 z"
   id="path4165"
   inkscape:connector-curvature="0" /><path
   style="fill:#62ce94;fill-opacity:0"
   d="m 16.469729,15.718447 -0.35121,-0.245998 0,-7.4778628 c 0,-6.7564059 0.02516,-7.49878732 0.260762,-7.69474309 0.187254,-0.15574234 0.902848,-0.23134987 2.538496,-0.26821 l 2.277734,-0.05132986 1.531191,1.50436595 1.531191,1.5043658 3.607493,0.048199 c 3.358001,0.044865 3.622988,0.069413 3.831548,0.354945 0.18389,0.2517586 0.224054,1.3620134 0.224054,6.1935085 l 0,5.8867619 -0.351211,0.245998 c -0.305396,0.213907 -1.290294,0.245997 -7.550024,0.245997 -6.25973,0 -7.244628,-0.03209 -7.550024,-0.245997 z"
   id="path4167"
   inkscape:connector-curvature="0" /><path
   style="fill:#62ce94;fill-opacity:0"
   d="m 16.469729,15.718447 -0.35121,-0.245998 0,-7.4778628 c 0,-6.7564059 0.02516,-7.49878732 0.260762,-7.69474309 0.187254,-0.15574234 0.902848,-0.23134987 2.538496,-0.26821 l 2.277734,-0.05132986 1.531191,1.50436595 1.531191,1.5043658 3.607493,0.048199 c 3.358001,0.044865 3.622988,0.069413 3.831548,0.354945 0.18389,0.2517586 0.224054,1.3620134 0.224054,6.1935085 l 0,5.8867619 -0.351211,0.245998 c -0.305396,0.213907 -1.290294,0.245997 -7.550024,0.245997 -6.25973,0 -7.244628,-0.03209 -7.550024,-0.245997 z"
   id="path4169"
   inkscape:connector-curvature="0" /><path
   style="fill:#62ce94;fill-opacity:0"
   d="m 16.469729,15.718447 -0.35121,-0.245998 0,-7.4778628 c 0,-6.7564059 0.02516,-7.49878732 0.260762,-7.69474309 0.187254,-0.15574234 0.902848,-0.23134987 2.538496,-0.26821 l 2.277734,-0.05132986 1.531191,1.50436595 1.531191,1.5043658 3.607493,0.048199 c 3.358001,0.044865 3.622988,0.069413 3.831548,0.354945 0.18389,0.2517586 0.224054,1.3620134 0.224054,6.1935085 l 0,5.8867619 -0.351211,0.245998 c -0.305396,0.213907 -1.290294,0.245997 -7.550024,0.245997 -6.25973,0 -7.244628,-0.03209 -7.550024,-0.245997 z"
   id="path4171"
   inkscape:connector-curvature="0" /><path
   style="fill:#62ce94;fill-opacity:0"
   d="m 16.469729,15.718447 -0.35121,-0.245998 0,-7.4778628 c 0,-6.7564059 0.02516,-7.49878732 0.260762,-7.69474309 0.187254,-0.15574234 0.902848,-0.23134987 2.538496,-0.26821 l 2.277734,-0.05132986 1.531191,1.50436595 1.531191,1.5043658 3.607493,0.048199 c 3.358001,0.044865 3.622988,0.069413 3.831548,0.354945 0.18389,0.2517586 0.224054,1.3620134 0.224054,6.1935085 l 0,5.8867619 -0.351211,0.245998 c -0.305396,0.213907 -1.290294,0.245997 -7.550024,0.245997 -6.25973,0 -7.244628,-0.03209 -7.550024,-0.245997 z"
   id="path4173"
   inkscape:connector-curvature="0" /><path
   style="fill:#62ce94;fill-opacity:0"
   d="m 16.469729,15.718447 -0.35121,-0.245998 0,-7.4778628 c 0,-6.7564059 0.02516,-7.49878732 0.260762,-7.69474309 0.187254,-0.15574234 0.902848,-0.23134987 2.538496,-0.26821 l 2.277734,-0.05132986 1.531191,1.50436595 1.531191,1.5043658 3.607493,0.048199 c 3.358001,0.044865 3.622988,0.069413 3.831548,0.354945 0.18389,0.2517586 0.224054,1.3620134 0.224054,6.1935085 l 0,5.8867619 -0.351211,0.245998 c -0.305396,0.213907 -1.290294,0.245997 -7.550024,0.245997 -6.25973,0 -7.244628,-0.03209 -7.550024,-0.245997 z"
   id="path4175"
   inkscape:connector-curvature="0" /><path
   style="fill:#62ce94;fill-opacity:0"
   d="m 16.469729,15.718447 -0.35121,-0.245998 0,-7.4778628 c 0,-6.7564059 0.02516,-7.49878732 0.260762,-7.69474309 0.187254,-0.15574234 0.902848,-0.23134987 2.538496,-0.26821 l 2.277734,-0.05132986 1.531191,1.50436595 1.531191,1.5043658 3.607493,0.048199 c 3.358001,0.044865 3.622988,0.069413 3.831548,0.354945 0.18389,0.2517586 0.224054,1.3620134 0.224054,6.1935085 l 0,5.8867619 -0.351211,0.245998 c -0.305396,0.213907 -1.290294,0.245997 -7.550024,0.245997 -6.25973,0 -7.244628,-0.03209 -7.550024,-0.245997 z"
   id="path4177"
   inkscape:connector-curvature="0" /><path
   style="fill:#62ce94;fill-opacity:0"
   d="m 16.469729,15.718447 -0.35121,-0.245998 0,-7.4778628 c 0,-6.7564059 0.02516,-7.49878732 0.260762,-7.69474309 0.187254,-0.15574234 0.902848,-0.23134987 2.538496,-0.26821 l 2.277734,-0.05132986 1.531191,1.50436595 1.531191,1.5043658 3.607493,0.048199 c 3.358001,0.044865 3.622988,0.069413 3.831548,0.354945 0.18389,0.2517586 0.224054,1.3620134 0.224054,6.1935085 l 0,5.8867619 -0.351211,0.245998 c -0.305396,0.213907 -1.290294,0.245997 -7.550024,0.245997 -6.25973,0 -7.244628,-0.03209 -7.550024,-0.245997 z"
   id="path4197"
   inkscape:connector-curvature="0" /><path
   style="fill:#62ce94;fill-opacity:0"
   d="m 16.469729,15.718447 -0.35121,-0.245998 0,-7.4778628 c 0,-6.7564059 0.02516,-7.49878732 0.260762,-7.69474309 0.187254,-0.15574234 0.902848,-0.23134987 2.538496,-0.26821 l 2.277734,-0.05132986 1.531191,1.50436595 1.531191,1.5043658 3.607493,0.048199 c 3.358001,0.044865 3.622988,0.069413 3.831548,0.354945 0.18389,0.2517586 0.224054,1.3620134 0.224054,6.1935085 l 0,5.8867619 -0.351211,0.245998 c -0.305396,0.213907 -1.290294,0.245997 -7.550024,0.245997 -6.25973,0 -7.244628,-0.03209 -7.550024,-0.245997 z"
   id="path4199"
   inkscape:connector-curvature="0" /><path
   style="fill:#62ce94;fill-opacity:0"
   d="m 32.395062,15.648395 c -0.173827,-0.173827 -0.31605,-0.427749 -0.31605,-0.564271 0,-0.355374 3.165172,-7.7088225 3.378097,-7.848124 0.0976,-0.063854 2.815327,-0.1171876 6.039387,-0.1185185 5.480005,-0.00226 5.878967,0.016409 6.123456,0.2865664 0.143842,0.1589424 0.261529,0.4136928 0.261529,0.5661119 0,0.4694691 -3.02507,7.4239042 -3.357096,7.7177412 -0.285411,0.252583 -0.810705,0.276543 -6.062879,0.276543 -5.539695,0 -5.761975,-0.01158 -6.066444,-0.316049 z"
   id="path4211"
   inkscape:connector-curvature="0" /><path
   style="fill:#62ce94;fill-opacity:0"
   d="m 32.395062,15.648395 c -0.173827,-0.173827 -0.31605,-0.427749 -0.31605,-0.564271 0,-0.355374 3.165172,-7.7088225 3.378097,-7.848124 0.0976,-0.063854 2.815327,-0.1171876 6.039387,-0.1185185 5.480005,-0.00226 5.878967,0.016409 6.123456,0.2865664 0.143842,0.1589424 0.261529,0.4136928 0.261529,0.5661119 0,0.4694691 -3.02507,7.4239042 -3.357096,7.7177412 -0.285411,0.252583 -0.810705,0.276543 -6.062879,0.276543 -5.539695,0 -5.761975,-0.01158 -6.066444,-0.316049 z"
   id="path4213"
   inkscape:connector-curvature="0" /><path
   style="fill:#62ce94;fill-opacity:0"
   d="m 32.395062,15.648395 c -0.173827,-0.173827 -0.31605,-0.427749 -0.31605,-0.564271 0,-0.355374 3.165172,-7.7088225 3.378097,-7.848124 0.0976,-0.063854 2.815327,-0.1171876 6.039387,-0.1185185 5.480005,-0.00226 5.878967,0.016409 6.123456,0.2865664 0.143842,0.1589424 0.261529,0.4136928 0.261529,0.5661119 0,0.4694691 -3.02507,7.4239042 -3.357096,7.7177412 -0.285411,0.252583 -0.810705,0.276543 -6.062879,0.276543 -5.539695,0 -5.761975,-0.01158 -6.066444,-0.316049 z"
   id="path4215"
   inkscape:connector-curvature="0" /></svg>